<svg xmlns="http://www.w3.org/2000/svg" viewBox="0 0 7500.06 1286.089"
     fill="currentColor">
    <path d="M1953.796 238.579c-253 0-289 1.992-305 16.992-24 22-23.016 49.012 3.984 67.012 17 12 49 15.996 135 15.996h113.008v338.008c0 250 2.992 341 11.992 350 17 17 54.012 14.996 72.012-4.004 14-13 15.996-59 15.996-350V338.579h113.008c86 0 118-3.996 135-15.996 26-18 27.996-46.008 5.996-68.008-13-14-54.996-15.996-300.996-15.996zm2988.496.996c-12-1-24.508 4-35.508 15-14 13-15.996 63.008-15.996 388.008 0 276 2.992 375.004 11.992 384.004 19 19 66.008 14.988 78.008-7.012 6-11 10-90.996 10-185.996 0-188 6-208.004 70-244.004 50-28 132.992-27.996 176.992-.996 61 37 74.012 82.004 77.012 264.004 1 88 5.004 167.004 9.004 174.004 10 15 59 16 75 0s15.996-307.004.996-379.004c-15-68-63-122.004-135-149.004-78-29-135.996-26-210.996 10l-63.008 29.004V410.571c0-99-2.996-132-15.996-150-9-13-20.5-19.996-32.5-20.996zm-1091.504 69.629c-6.25-1.125-13.492 2.375-26.992 9.375l-28.008 15.996-3.008 259.004c-2 212 .01 267 13.008 305 17 52 65 105.996 110 125.996 17 7 49.008 13.004 73.008 14.004 36 0 43.984-3.996 53.984-25.996 17-36 2.004-54-60.996-75-29-9-56.988-21.012-62.988-27.012-18-18-28.008-86.984-28.008-203.984V588.579h53.008c40 0 57.996-5.008 70.996-18.008 15-18 15-21-5-45-17-23-28-26.992-70-26.992h-49.004v-74.004c0-58-4.004-78.992-19.004-96.992-9.5-11.5-14.746-17.254-20.996-18.379zm2901.758 160.098c-8 .219-18.012 1.035-30.762 2.285-107 9-207.992 81.996-251.992 180.996-18 41-21.996 72.992-25.996 196.992-2 95-.01 156.004 6.992 169.004 14 27 55.004 26.008 74.004-1.992 13-18 15.996-51.016 15.996-156.016 0-141 10.008-184 53.008-230 24-26 87.984-61.992 108.984-61.992 7 0 30-5 50-10 41-12 55.008-37.996 38.008-70.996-8.25-14.25-14.242-18.937-38.242-18.281zm-4211.758 9.277c-73 0-140 28.008-195 83.008-59 59-85 121.988-85 202.988 0 125 71.008 221.996 193.008 265.996 38 13 67.996 17.008 110.996 13.008 102-9 199.996-79 165.996-120-17-20-39-19-100 5-125 49-231 4.996-270-114.004-25-77 11.996-170.992 85.996-216.992 94-58 237.004-4.996 269.004 99.004 6 22 5.008 21.992-91.992 21.992-104 0-123.008 7-123.008 45 0 40 16.992 45 156.992 45 122 0 135.004-1.996 154.004-20.996 17-17 20-28.996 15-60.996-22-136-150.996-248.008-285.996-248.008zm3377.832.469c-62.18-.094-124.711 20.902-176.836 65.527-63 54-93.004 113.004-99.004 194.004-10 142 65.016 251.996 201.016 295.996 57 19 134.984 11.004 203.984-20.996 34-15 59.016-21.996 61.016-15.996s11.992 20.988 21.992 32.988c15 19 21.008 21.016 43.008 11.016 35-16 41-55.004 35-214.004-5-113-9.012-136.004-32.012-184.004-51.875-105.625-154.531-164.375-258.164-164.531zm-1454.043.566c-150.514-4.881-266.66 97.719-209.785 207.969 21 40 56.996 59.992 180.996 101.992 87 29 113 42.012 125 62.012 21 38 4 78.984-40 93.984-64 22-109.992 16.016-186.992-23.984-71-36-73.008-36.008-93.008-18.008-47 42-13 78.992 115 126.992 56 21 141.008 19.016 208.008-3.984 109-39 149-164.008 75-238.008-21-22-60.004-38.996-144.004-65.996-64-19-124-44-135-55-47-47 0-99.004 90-99.004 54 0 88.004 12 149.004 50 25 17 55 4.996 60-24.004 6-30-70.008-91.996-128.008-105.996-22.5-5.375-44.709-8.268-66.211-8.965zm-1215.781.508c-9.627-.175-19.219.144-28.75.957-76.25 6.5-148.266 44.5-197.266 112.5-85 116-69.996 279 34.004 375 44 40 70.004 54.996 129.004 70.996 46 12 127.008 3.004 183.008-20.996l50.996-21.992 30 20.996c31 22 65.996 26.992 75.996 11.992 9-16 13-179.992 5-266.992-8-93-37.008-160-88.008-205-57.75-50.75-126.595-76.237-193.984-77.461zm3950.293 1.601c-63.464 3.247-126.738 27.852-178.301 77.852-152 147-95.996 399.996 104.004 470.996 117 42 300.992-20.996 281.992-95.996-9-37-36.996-39.996-90.996-10.996-102 54-219.996 20.008-270.996-76.992-23-44-18-134.012 10-182.012 41-69 128.992-105.996 206.992-85.996 52 13 80.008 33.996 108.008 80.996 35 57 31.988 59.004-77.012 59.004-104 0-121.992 6.992-121.992 46.992 0 35 30.004 43.008 169.004 43.008 156 0 166.988-5.996 157.988-80.996-18.562-156.75-159.07-253.003-298.691-245.859zM5916.277 572.29c100.885-1.777 193.637 83.543 194.512 190.293 0 53-33.992 119.988-76.992 152.988-66 51-200 38.012-255-22.988-92-104-40.016-278.004 93.984-314.004a174.92 174.92 0 0 1 43.496-6.289zm-2665.176 1.797c13.886.255 28.164 2.019 42.695 5.488 81 19 146.992 103.008 146.992 188.008 0 55-54.992 136.992-111.992 166.992-15 8-51 14.004-80 14.004-81 0-137.004-35-169.004-105-58.625-127.75 30.519-262.381 157.559-269.258a189.07 189.07 0 0 1 13.75-.234zM178.283 0l1.992 502.988L183.283 1005l80 11.992c124 18 306.008 76.004 403.008 129.004 15 8 30 14 35 15l6.992-488.008c0-552 8-498-85-545-103-51-259.008-97.992-408.008-121.992zm1090.996.996c-26 0-257.988 53.992-267.988 61.992s-13.008 56.004-13.008 179.004c0 100-4.004 169.004-9.004 169.004-6 0-21.988-15.996-37.988-35.996l-27.012-37.012L882.287 375c-17 20-34.008 35.996-38.008 35.996-3 0-5.996-63-5.996-140s-2-140-5-140c-12 0-69.992 33.004-76.992 44.004-4 6-8.008 231-8.008 500 0 387 3.008 486.988 13.008 482.988l106.992-46.992c104-46 238.008-84.996 328.008-95.996 31-3 63-10.996 70-15.996 9-8 11.992-121.004 11.992-504.004 0-281-4.004-494.004-9.004-494.004zm-1170.996 120l1.992 493.008 3.008 491.992 125 6.992c144 7 232.008 24.012 368.008 72.012 54 18 109 34 125 35 15 0 96.992-19.004 181.992-44.004 166-48 228.008-60 373.008-70l91.992-6.992V610 120.996h-30-30.996l.996 450.996c1 349-.996 454-10.996 460-7 4-48.012 12.004-92.012 19.004-118 17-237.996 54.996-355.996 110.996-57 27-111.992 49.004-121.992 49.004S683.291 1199 651.291 1185c-121-53-321.008-122.008-388.008-133.008L171.291 1035l-23.008-4.004v-455-455h-25zm-40 99.004l-23.008 2.988-21.992 3.008-8.008 405c-9 477-7 598.008 10 608.008 7 4 45 4.996 85 .996 170-17 366.008-5.004 508.008 30.996 89 23 148 20.004 285-10.996 89-21 125.008-23.008 328.008-23.008l226.992.996-1.992-505.996-3.008-505.996-21.992-3.008-23.008-2.988v459.004 458.984l-121.992 6.016c-142 6-290 33.988-415 77.988-48 17-102.008 33.996-118.008 35.996-19 3-91-13-185-40-200-58-242.996-66-380.996-75l-114.004-6.992-3.008-458.008z"/>
</svg>
