<svg xmlns="http://www.w3.org/2000/svg" viewBox="0 0 5890 2540" fill="currentColor">
    <path d="M833 2512c-122-44-193-141-193-266 0-81 26-144 85-203 55-55 122-83 195-83 135 0 264 112 286 248 5 32 2 44-15 61-19 19-32 21-154 21-140 0-157-5-157-45 0-38 19-45 123-45 97 0 98 0 92-22-32-104-175-157-269-99-74 46-111 140-86 217 39 119 145 163 270 114 61-24 83-25 100-5 34 41-64 111-166 120-43 4-73 0-111-13zm732 9c-59-16-85-31-129-71-104-96-119-259-34-375 98-136 288-152 420-36 51 45 80 112 88 205 8 87 4 251-5 267-10 15-45 10-76-12l-30-21-51 22c-56 24-137 33-183 21zm143-105c57-30 112-112 112-167 0-85-66-169-147-188-155-37-281 118-214 264 32 70 88 105 169 105 29 0 65-6 80-14zm1027 96c-128-48-162-85-115-127 20-18 22-18 93 18 77 40 123 46 187 24 44-15 61-56 40-94-12-20-38-33-125-62-124-42-160-62-181-102-65-126 96-242 276-199 58 14 134 76 128 106-5 29-35 41-60 24-61-38-95-50-149-50-90 0-137 52-90 99 11 11 71 36 135 55 84 27 123 44 144 66 74 74 34 199-75 238-67 23-152 25-208 4zm1488 4c-136-44-211-154-201-296 6-81 36-140 99-194 139-119 352-70 435 99 23 48 27 71 32 184 6 159 0 198-35 214-22 10-28 8-43-11-10-12-20-27-22-33s-27 1-61 16c-69 32-147 40-204 21zm190-119c43-33 77-100 77-153-1-122-122-216-238-184-134 36-186 210-94 314 55 61 189 74 255 23zm1091 115c-200-71-256-324-104-471 165-160 450-60 477 168 9 75-2 81-158 81-139 0-169-8-169-43 0-40 18-47 122-47 109 0 112-2 77-59-28-47-56-68-108-81-78-20-166 17-207 86-28 48-33 138-10 182 51 97 169 131 271 77 54-29 82-26 91 11 19 75-165 138-282 96zm-5212-4c-9-9-12-100-12-350v-338H167c-86 0-118-4-135-16-27-18-28-45-4-67 16-15 52-17 305-17 246 0 288 2 301 16 22 22 20 50-6 68-17 12-49 16-135 16H380v334c0 291-2 337-16 350-18 19-55 21-72 4zm2003-2c-45-20-93-74-110-126-13-38-15-93-13-305l3-259 28-16c27-14 29-14 48 9 15 18 19 39 19 97v74h49c42 0 53 4 70 27 20 24 20 27 5 45-13 13-31 18-71 18h-53v118c0 117 10 186 28 204 6 6 34 18 63 27 63 21 78 39 61 75-10 22-18 26-54 26-24-1-56-7-73-14zm987 2c-9-9-12-108-12-384 0-325 2-375 16-388 22-22 50-20 68 6 13 18 16 51 16 150v127l63-29c75-36 133-39 211-10 72 27 120 81 135 149 15 72 15 363-1 379s-65 15-75 0c-4-7-8-86-9-174-3-182-16-227-77-264-44-27-127-27-177 1-64 36-70 56-70 244 0 95-4 175-10 186-12 22-59 26-78 7zm1548-8c-7-13-9-74-7-169 4-124 8-156 26-197 44-99 145-172 252-181 51-5 58-3 69 16 17 33 3 59-38 71-20 5-43 10-50 10-21 0-85 36-109 62-43 46-53 89-53 230 0 105-3 138-16 156-19 28-60 29-74 2zM2830 1280c-142-36-338-48-508-31-40 4-78 3-85-1-17-10-19-131-10-608l8-405 22-3 23-3 2 458 3 458 114 7c138 9 181 17 381 75 94 27 166 43 185 40 16-2 70-19 118-36 125-44 273-72 415-78l122-6V688 229l23 3 22 3 3 506 2 506-227-1c-203 0-239 2-328 23-137 31-196 34-285 11zm-12-86c-136-48-224-65-368-72l-125-7-3-492-2-493h25 25v455 455l23 4c12 3 54 10 92 17 67 11 267 80 388 133 32 14 66 26 76 26s65-22 122-49c118-56 238-94 356-111 44-7 85-15 92-19 10-6 12-111 11-460l-1-451h31 30v489 489l-92 7c-145 10-207 22-373 70-85 25-167 44-182 44-16-1-71-17-125-35zm70-39c-97-53-279-111-403-129l-80-12-3-502-2-503 37 6c149 24 305 71 408 122 93 47 85-7 85 545l-7 488c-5-1-20-7-35-15zm82-471c0-269 4-494 8-500 7-11 65-44 77-44 3 0 5 63 5 140s3 140 6 140c4 0 21-16 38-36l32-37 27 37c16 20 32 36 38 36 5 0 9-69 9-169 0-123 3-171 13-179s242-62 268-62c5 0 9 213 9 494 0 383-3 496-12 504-7 5-39 13-70 16-90 11-224 50-328 96l-107 47c-10 4-13-96-13-483z"/>
</svg>
