<svg width="284" height="409" viewBox="0 0 284 409" fill="none" xmlns="http://www.w3.org/2000/svg">
<path d="M18.0513 187.336H144.888C145.329 187.336 145.751 187.511 146.063 187.823C146.374 188.134 146.55 188.557 146.55 188.998V198.772C146.55 199.213 146.374 199.636 146.063 199.947C145.751 200.259 145.329 200.434 144.888 200.434H78.8977V223.982" stroke="#F96F5D" stroke-width="5" stroke-miterlimit="10"/>
<path d="M33.0188 11.4402L26.7067 57.6762C25.1209 69.2479 26.9081 81.0313 31.8537 91.6124L41.0802 111.276C47.2106 124.341 57.7935 134.548 70.7521 139.893L98.6098 151.385L33.0188 11.4402Z" fill="white" stroke="#F96F5D" stroke-width="5" stroke-miterlimit="10"/>
<path d="M54.0419 187.381H16.208C7.61117 187.381 1.30876 178.943 3.40524 170.23L20.9299 110.928C22.5526 104.171 28.3747 99.4365 35.0471 99.4365" stroke="#F96F5D" stroke-width="5" stroke-miterlimit="10"/>
<path d="M101.015 153.994C100.655 153.991 100.304 153.885 100.002 153.689C99.701 153.493 99.4621 153.215 99.314 152.887L32.5254 10.3269C31.9088 9.0125 32.8272 7.48071 34.226 7.48071C34.5875 7.48181 34.9412 7.58666 35.245 7.78283C35.5487 7.979 35.7898 8.25824 35.9395 8.58737L102.715 151.148C103.332 152.462 102.413 153.994 101.015 153.994Z" fill="white" stroke="#F96F5D" stroke-width="5" stroke-miterlimit="10"/>
<path d="M59.3252 186.548C62.0227 186.548 64.2094 184.361 64.2094 181.664C64.2094 178.966 62.0227 176.779 59.3252 176.779C56.6278 176.779 54.441 178.966 54.441 181.664C54.441 184.361 56.6278 186.548 59.3252 186.548Z" stroke="#F96F5D" stroke-width="5" stroke-miterlimit="10"/>
<path d="M54.4573 182.319C54.3697 179.339 56.3331 176.866 59.3253 176.779L59.7991 176.763C61.069 176.726 62.3384 176.851 63.5766 177.136L103.095 186.281" stroke="#F96F5D" stroke-width="5" stroke-miterlimit="10"/>
<path d="M281.22 138.121L249.848 253.719C248.258 259.588 244.78 264.771 239.95 268.466C235.121 272.161 229.21 274.164 223.129 274.165H116.865" stroke="#F96F5D" stroke-width="5" stroke-miterlimit="10"/>
<path d="M125.455 274.152L211.112 404.101" stroke="#F96F5D" stroke-width="5" stroke-miterlimit="10" stroke-linecap="round"/>
<path d="M219.225 274.152L125.779 405.399" stroke="#F96F5D" stroke-width="5" stroke-miterlimit="10" stroke-linecap="round"/>
<path d="M126.863 359.753C126.863 359.753 122.408 366.569 114.671 365.614L109.439 358.128C114.836 356.967 120.117 355.323 125.218 353.214C125.75 355.703 126.305 357.985 126.863 359.753Z" fill="#FFCFC9"/>
<path d="M237.149 240.884C234.014 247.903 223.571 266.142 199.549 266.898C169.77 267.836 114.982 265.026 114.982 265.026C114.982 265.026 127.513 314.536 127.782 352.055C127.782 352.055 117.906 357.066 103.247 359.266C103.247 359.266 50.6733 260.933 61.1135 236.892C68.8827 219.007 127.934 212.052 154.627 209.807C165.72 216.239 202.629 236.396 237.149 240.884Z" fill="#52509D"/>
<path d="M126.863 359.753C126.863 359.753 132.277 365.705 138.251 370.431C142.035 373.423 140.549 379.193 137.326 384.041C132.48 391.312 127.102 398.215 121.236 404.691C121.236 404.691 112.853 405.577 96.5392 404.909C96.5392 404.909 95.9291 399.119 101.696 396.503C114.84 390.542 117.799 374.76 114.677 365.631C114.671 365.614 121.236 366.786 126.863 359.753Z" fill="#3F4D79"/>
<path d="M140.825 372.121C142.396 375.454 140.059 380.465 137.651 384.041C137.651 384.041 128.7 396.519 121.885 404.999L96.2147 405.217" stroke="#F96F5D" stroke-width="7" stroke-miterlimit="10" stroke-linecap="round"/>
<path d="M113.009 392.142C113.009 392.142 107.086 388.267 111.387 385.898" stroke="#F96F5D" stroke-width="5" stroke-miterlimit="10" stroke-linecap="round"/>
<path d="M116.255 388.572C116.255 388.572 109.034 384.697 113.334 382.328" stroke="#F96F5D" stroke-width="5" stroke-miterlimit="10" stroke-linecap="round"/>
<path d="M203.846 77.4692C203.846 77.4692 231.041 69.9758 232.966 47.7227C233.294 43.9549 203.846 77.4692 203.846 77.4692Z" fill="#6562CF"/>
<path d="M204.173 33.9758C204.173 33.9758 215.912 58.5201 226.712 67.6817C226.712 67.6817 209.47 79.1474 194.996 79.1409C194.996 79.1409 185.519 62.4535 181.593 56.0699L204.173 33.9758Z" fill="#FFCFC9"/>
<path d="M190.468 71.2189C187.473 66.0037 183.718 59.5358 181.592 56.0698L198.773 39.2688L199.951 41.6152C201.204 52.8634 198.066 65.1372 190.468 71.2189Z" fill="#FFC0B7"/>
<path d="M200.406 38.8826C200.406 38.8826 200.354 48.294 196.774 53.5028C192.27 60.0616 180.804 67.1331 172.077 65.835C163.351 64.5368 155.74 20.3389 162.286 17.7232C168.832 15.1075 187.119 12.7059 192.571 20.7705C198.024 28.8351 200.406 38.8826 200.406 38.8826Z" fill="#FFCFC9"/>
<path d="M209.564 44.3378C209.564 44.3378 205.764 44.9479 200.24 42.4133C200.412 40.3493 200.49 36.1109 198.355 34.8907C196.025 33.5601 194.694 37.3149 194.282 38.7364C193.784 38.3513 193.281 37.9369 192.773 37.4934C183.686 29.5976 186.052 21.8672 186.052 21.8672C186.052 21.8672 172.532 29.8182 159.651 29.2925C148.961 28.8576 143.726 13.8967 152.738 9.43767C152.738 9.43767 152.089 13.5365 159.956 11.5731C167.823 9.60967 166.294 1.62295 177.319 0.217731C190.903 -1.49904 193.711 7.50022 193.711 7.50022C193.711 7.50022 200.217 4.07641 206.916 10.3042C214.052 16.9408 204.832 35.4651 209.564 44.3378Z" fill="#F96F5D"/>
<path d="M187.441 20.4264C187.441 20.4264 174.803 30.5064 161.069 32.2945C148.149 33.9756 142.49 17.2915 151.268 11.2422" stroke="#F96F5D" stroke-width="4" stroke-miterlimit="10"/>
<path d="M192.542 8.17183C192.542 8.17183 196.959 1.8889 205.322 5.57558" stroke="#F96F5D" stroke-width="4" stroke-miterlimit="10"/>
<path d="M240.005 241.222C250.13 231.304 263.027 168.757 259.659 128.658C259.448 124.092 258.779 119.56 257.663 115.128C257.089 112.519 256.319 109.957 255.362 107.463C252.441 99.9984 245.762 92.2097 236.474 86.8906C227.007 80.1112 214.656 75.4217 198.286 78.1607C173.921 82.2368 168.264 106.56 166.953 117.633L166.933 117.614L160.323 154.779L112.084 156.6V172.379C112.084 172.379 151.667 196.524 179.707 189.527L179.954 189.462C166.648 202.476 151.291 207.831 151.291 207.831C151.291 207.831 198.014 236.818 240.005 241.222Z" fill="#3F4D79"/>
<path d="M203.398 138.692C203.398 138.692 194.162 185.214 176.991 191.149" stroke="white" stroke-width="5" stroke-miterlimit="10" stroke-linecap="round"/>
<path d="M203.846 77.4694C211.372 76.4958 231.314 63.8164 232.95 47.1257C232.95 47.1257 262.933 77.4694 251.951 101.715C251.951 101.715 245.837 90.3566 232.615 83.4538C216.791 75.2009 203.846 77.4694 203.846 77.4694Z" fill="#3F4D79"/>
<path d="M254.602 103.029C254.602 103.029 245.516 90.9504 232.615 83.4537C214.555 72.9551 192.338 78.4559 192.338 78.4559" stroke="white" stroke-width="5" stroke-miterlimit="10" stroke-linecap="round"/>
<path d="M112.24 166.771C112.24 166.771 107.447 174.349 102.345 173.261C97.2435 172.174 92.4957 171.428 89.9091 172.758C86.7125 174.404 83.5386 178.035 81.4519 177.967C78.9257 177.901 76.4357 177.35 74.1174 176.345C75.4305 173.668 76.8776 171.06 78.4532 168.53C76.6845 169.649 74.3381 171.947 73.04 172.817C70.963 174.212 69.5091 172.226 69.5091 172.226C69.5091 172.226 73.0984 167.128 74.6691 165.8C76.1782 164.525 81.6239 160.569 83.9994 160.219C86.8521 159.54 100.927 157.479 112.273 156.704L112.24 166.771Z" fill="#FFCFC9"/>
<path d="M76.7656 176.416C76.7656 176.416 83.1297 167.095 84.8984 166.44C88.0139 165.287 92.077 163.765 92.077 163.765" stroke="#F7B3AF" stroke-width="4" stroke-miterlimit="10" stroke-linecap="round"/>
<path d="M79.8647 177.259C79.8647 177.259 85.6154 169.471 87.3809 168.822C90.4964 167.67 94.5628 166.144 94.5628 166.144" stroke="#F7B3AF" stroke-width="4" stroke-miterlimit="10" stroke-linecap="round"/>
</svg>
