<svg width="351" height="416" viewBox="0 0 351 416" fill="none" xmlns="http://www.w3.org/2000/svg">
<path d="M20.9501 415.267C20.0533 415.271 19.1903 414.924 18.5465 414.3C17.9026 413.676 17.5291 412.824 17.5061 411.928L31.0864 261.433H44.5925L24.3976 411.928C24.3737 412.825 23.9995 413.676 23.3551 414.3C22.7106 414.925 21.8473 415.271 20.9501 415.267Z" fill="white" stroke="#6562CF" stroke-width="5" stroke-miterlimit="10"/>
<path d="M103.178 415.267C104.075 415.271 104.939 414.924 105.583 414.3C106.228 413.676 106.602 412.825 106.626 411.928L93.0454 261.433H79.5393L99.7241 411.928C99.7471 412.826 100.122 413.679 100.768 414.304C101.414 414.928 102.28 415.274 103.178 415.267Z" fill="white" stroke="#6562CF" stroke-width="5" stroke-miterlimit="10"/>
<path d="M110.856 242.488H13.2753C8.15268 242.488 4 246.639 4 251.761V252.159C4 257.281 8.15268 261.432 13.2753 261.432H110.856C115.979 261.432 120.132 257.281 120.132 252.159V251.761C120.132 246.639 115.979 242.488 110.856 242.488Z" fill="white" stroke="#F96F5D" stroke-width="7" stroke-linejoin="round"/>
<path d="M257.944 409.967C257.944 409.967 236.753 409.967 226.789 409.906C218.409 409.852 201.803 410.581 201.648 406.55C201.502 402.837 205.261 393.179 205.841 389.921C212.471 390.117 219.047 388.679 224.989 385.735C227.15 387.845 239.194 399.218 249.088 400.383C260.001 401.669 257.944 409.967 257.944 409.967Z" fill="#6562CF"/>
<path d="M128.111 416.799C128.111 416.799 98.2216 417.282 94.5851 416.799C90.9486 416.316 80.6671 407.749 80.6671 407.749C80.6671 400.383 85.4651 392.18 86.6469 389.415C90.6987 390.644 97.4045 391.97 106.339 391.299C106.565 393.834 107.922 402.746 115.793 403.789C128.83 405.504 128.111 416.799 128.111 416.799Z" fill="#6562CF"/>
<path d="M103.148 406.118C103.148 406.118 107.97 402.83 116.114 402.79" stroke="white" stroke-width="5" stroke-miterlimit="10"/>
<path d="M46.3314 196.145C46.3314 196.145 32.1231 221.771 37.8159 240.705C43.5087 259.64 77.1961 256.514 77.1961 256.514C77.1961 256.514 66.4386 298.748 82.1664 387.69C82.1664 387.69 94.5818 394.441 115.769 389.935C115.769 389.935 118.933 348.517 133.631 257.01L161.319 258.607C161.319 258.607 150.649 308.933 200.706 389.297C200.706 389.297 214.748 393.01 230.247 382.724C230.247 382.724 210.663 292.007 207.327 236.469C206.348 220.113 178.397 204.993 123.424 195.831C123.424 195.831 65.7835 199.47 46.3314 196.145Z" fill="#424D76"/>
<path d="M134.651 257.348C135.768 250.934 141.404 223.59 105.025 214.604" stroke="white" stroke-width="5" stroke-miterlimit="10"/>
<path d="M80.6705 246.107C80.6705 246.107 77.4662 250.252 76.1831 257.21" stroke="white" stroke-width="5" stroke-miterlimit="10"/>
<path d="M125.771 184.35C125.771 184.35 158.908 119.393 162.865 98.9225C167.977 72.5307 157.074 63.1123 150.571 60.9923C144.068 58.8723 100.261 47.1516 100.261 47.1516C92.1979 48.3061 57.4165 55.1353 45.9262 62.2751C40.0882 65.9412 46.4529 185.005 46.4529 185.005C44.3561 191.503 37.4984 207.693 37.4984 207.693C37.4984 207.693 60.0265 216.207 101.861 209.489L110.131 196.476C110.131 196.476 115.384 205.897 117.626 206.569C119.868 207.241 133.104 204.058 138.801 198.707C138.801 198.69 125.75 189.501 125.771 184.35Z" fill="#DBDAFF"/>
<path d="M110.57 95.6852C111.92 95.6852 113.014 94.591 113.014 93.2412C113.014 91.8914 111.92 90.7971 110.57 90.7971C109.219 90.7971 108.125 91.8914 108.125 93.2412C108.125 94.591 109.219 95.6852 110.57 95.6852Z" stroke="white" stroke-width="5" stroke-miterlimit="10"/>
<path d="M110.57 118.32C111.92 118.32 113.014 117.226 113.014 115.876C113.014 114.526 111.92 113.432 110.57 113.432C109.219 113.432 108.125 114.526 108.125 115.876C108.125 117.226 109.219 118.32 110.57 118.32Z" stroke="white" stroke-width="5" stroke-miterlimit="10"/>
<path d="M110.164 138.325C111.515 138.325 112.609 137.231 112.609 135.881C112.609 134.531 111.515 133.437 110.164 133.437C108.814 133.437 107.72 134.531 107.72 135.881C107.72 137.231 108.814 138.325 110.164 138.325Z" stroke="white" stroke-width="5" stroke-miterlimit="10"/>
<path d="M108.814 155.541C110.164 155.541 111.258 154.447 111.258 153.097C111.258 151.747 110.164 150.653 108.814 150.653C107.464 150.653 106.369 151.747 106.369 153.097C106.369 154.447 107.464 155.541 108.814 155.541Z" stroke="white" stroke-width="5" stroke-miterlimit="10"/>
<path d="M107.463 175.796C108.813 175.796 109.908 174.702 109.908 173.352C109.908 172.002 108.813 170.908 107.463 170.908C106.113 170.908 105.018 172.002 105.018 173.352C105.018 174.702 106.113 175.796 107.463 175.796Z" stroke="white" stroke-width="5" stroke-miterlimit="10"/>
<path d="M103.411 193.013C104.762 193.013 105.856 191.918 105.856 190.568C105.856 189.219 104.762 188.124 103.411 188.124C102.061 188.124 100.967 189.219 100.967 190.568C100.967 191.918 102.061 193.013 103.411 193.013Z" stroke="white" stroke-width="5" stroke-miterlimit="10"/>
<path d="M99.7479 44.0867C99.7479 44.0867 108.125 56.469 110.718 63.1699C110.718 63.1699 105.701 63.5885 100.278 70.0869C100.278 70.0869 84.5569 56.4521 82.136 50.6829C82.136 50.6829 96.2532 45.0184 99.7479 44.0867Z" fill="white"/>
<path d="M104.563 53.5354C110.381 63.1699 116.225 76.7371 117.167 86.6382C117.782 93.0894 115.874 164.598 115.874 164.598C115.594 171.839 116.134 192.432 101.524 208.797" stroke="white" stroke-width="5" stroke-miterlimit="10" stroke-linecap="round"/>
<path d="M117.167 86.6383L130.326 66.3533" stroke="white" stroke-width="5" stroke-miterlimit="10"/>
<path d="M51.278 59.8684C21.7268 68.7434 -1.74333 126.115 7.12676 154.819C9.85161 163.633 31.7382 164.831 52.9123 164.808C81.275 164.777 115.827 164.599 115.827 164.599L116.607 149.829C116.607 149.829 77.0408 131.742 51.376 131.296C51.3895 131.296 92.9982 47.3409 51.278 59.8684Z" fill="#DBDAFF"/>
<path d="M115.827 164.599L116.022 149.884C116.022 149.884 77.1183 132.296 51.3893 130.935C51.3893 130.935 59.4929 112.237 64.7839 94.3892" stroke="white" stroke-width="5" stroke-miterlimit="10"/>
<path d="M116.759 162.843C116.759 162.843 122.637 169.257 127.729 167.859C132.821 166.462 137.575 165.466 140.259 166.668C143.578 168.153 146.982 171.643 149.085 171.458C151.632 171.258 154.116 170.57 156.402 169.432C154.933 166.8 153.332 164.243 151.604 161.773C153.455 162.802 155.95 164.997 157.307 165.803C159.488 167.113 160.839 165.013 160.839 165.013C160.839 165.013 156.932 160.065 155.271 158.812C153.677 157.607 147.961 153.91 145.54 153.691C142.623 153.164 124.795 148.644 116.816 149.64L116.759 162.843Z" fill="#B6732B"/>
<path d="M153.748 169.645C153.748 169.645 146.793 160.585 144.969 160.024C141.758 159.035 137.572 157.719 137.572 157.719" stroke="#A85F2B" stroke-width="3" stroke-miterlimit="10" stroke-linecap="round"/>
<path d="M150.652 170.668C150.652 170.668 144.416 163.133 142.596 162.566C139.385 161.574 135.198 160.26 135.198 160.26" stroke="#A85F2B" stroke-width="3" stroke-miterlimit="10" stroke-linecap="round"/>
<path d="M107.72 146.602L101.065 165.621" stroke="white" stroke-width="5" stroke-miterlimit="10"/>
<path d="M44.1333 165.82C72.496 165.79 115.827 164.598 115.827 164.598" stroke="white" stroke-width="5" stroke-miterlimit="10"/>
<path d="M266.825 200.068C268.992 202.36 278.159 212.933 281.995 214.04C285.831 215.147 297.915 212.656 298.878 212.072C299.84 211.488 305.354 206.985 305.354 206.985C305.354 206.985 303.527 203.386 299.546 205.702C294.819 208.45 289.035 205.337 286.614 203.001C285.601 202.036 284.838 198.758 286.496 197.391C288.154 196.024 292.148 199.612 293.783 199.754C296.278 199.983 298.081 197.61 298.081 197.61C298.081 197.61 291.608 192.287 290.372 191.26C289.137 190.234 280.216 186.494 273.064 187.324C265.913 188.155 261.797 194.758 266.825 200.068Z" fill="#B6732B"/>
<path d="M149.649 61.0164C149.649 61.0164 168.581 64.3077 181.773 79.681C192.264 91.9013 215.241 137.663 216.173 138.595C217.105 139.527 265.893 177.578 275.208 185.68C275.208 185.68 267.898 189.056 264.718 202.485C264.718 202.485 202.539 183.034 183.82 163.218C157.425 135.26 130.954 93.9065 149.649 61.0164Z" fill="#DBDAFF"/>
<path d="M267.105 178.253C267.105 178.253 255.625 184.397 254.25 199.109" stroke="white" stroke-width="5" stroke-miterlimit="10"/>
<path d="M160.839 101.961C160.839 101.961 158.786 115.609 154.498 125.254" stroke="white" stroke-width="5" stroke-miterlimit="10"/>
<path d="M281.495 200.432H327.335C333.649 200.432 338.761 205.834 338.761 212.47V255.343C338.761 261.993 343.88 267.381 350.187 267.381H304.341C298.03 267.381 292.915 261.979 292.915 255.343V212.923C292.954 210.297 292.086 207.738 290.456 205.678C288.826 203.618 286.535 202.184 283.97 201.617L281.489 201.168L281.495 200.432Z" fill="white" stroke="#6562CF" stroke-width="5" stroke-miterlimit="10"/>
<path d="M329.084 215.215H303.031" stroke="#F96F5D" stroke-width="7" stroke-linejoin="round"/>
<path d="M329.084 233.397H303.031" stroke="#F96F5D" stroke-width="7" stroke-linejoin="round"/>
<path d="M329.084 242.488H303.031" stroke="#F96F5D" stroke-width="7" stroke-linejoin="round"/>
<path d="M329.084 251.579H303.031" stroke="#F96F5D" stroke-width="7" stroke-linejoin="round"/>
<path d="M329.084 224.306H303.031" stroke="#F96F5D" stroke-width="7" stroke-linejoin="round"/>
<path d="M116.944 35.3735C115.749 36.9635 113.841 43.8467 101.615 47.1887C101.615 47.1887 114.348 63.7604 117.485 84.6261L130.991 63.6659L116.944 35.3735Z" fill="#A85F2B"/>
<path d="M168.267 22.8868C167.278 26.0937 162.592 25.8271 162.575 26.4144C162.558 27.0018 165.067 28.1023 164.496 30.7489C163.952 33.2639 161.896 33.6757 160.056 33.4968C160.053 33.317 160.037 33.1376 160.009 32.9601C158.739 25.4388 141.039 18.9877 133.368 24.1527C128.539 27.4703 124.987 32.3363 123.299 37.9461C123.299 37.9461 121.655 32.8183 118.498 33.9627C117.973 34.1374 117.495 34.4268 117.096 34.81C117.819 31.4984 119.224 22.188 119.166 19.987C119.099 17.4788 113.97 11.1458 117.934 7.15902C121.898 3.17223 126.476 6.28469 126.476 6.28469C126.476 6.28469 128.641 -0.325073 135.002 0.0125041C140.658 0.350082 142.093 4.06343 142.093 4.06343C142.093 4.06343 143.659 0.873327 146.685 1.47759C147.346 1.62975 147.969 1.91546 148.516 2.31717C149.063 2.71888 149.522 3.22812 149.865 3.81363C149.865 3.81363 153.647 1.36281 156.382 3.38828C157.149 3.92159 157.723 4.689 158.018 5.57564C158.312 6.46229 158.312 7.42047 158.016 8.30678C158.016 8.30678 163.321 6.41297 166.083 10.6698C167.906 13.4683 165.087 17.391 165.087 17.391C165.087 17.391 169.28 19.6764 168.267 22.8868Z" fill="#424D76"/>
<path d="M120.723 44.9374C120.723 44.9374 116.965 53.3768 122.901 59.4532C130.028 66.7584 138.504 68.9493 141.471 68.7501C144.439 68.5509 161.13 39.4855 160.042 32.9669C158.773 25.4457 141.073 18.9912 133.402 24.1561C128.572 27.4746 125.02 32.3419 123.333 37.9529C123.333 37.9529 121.685 32.8251 118.528 33.9695C112.555 36.1334 120.723 44.9374 120.723 44.9374Z" fill="#B6732B"/>
<path d="M128.553 26.8904C127.604 29.2534 120.112 42.8477 125.416 49.6701C130.721 56.4926 134.674 46.5779 144.686 50.1191C150.655 52.2256 149.19 58.1804 149.19 58.1804C149.19 58.1804 147.475 61.9411 144.939 69.7121C144.362 71.4709 122.357 67.6866 119.041 53.3936C117.599 47.1855 121.668 37.5072 124.926 31.7886C126.885 28.3386 128.553 26.8904 128.553 26.8904Z" fill="#424D76"/>
</svg>
