<svg id="Calque_1" data-name="Calque 1" xmlns="http://www.w3.org/2000/svg" viewBox="0 0 34.93 31.3"><defs><style>.cls-1{fill:#039fb7;}.cls-2{fill:#0fa4bb;}</style></defs><path class="cls-1" d="M89.31,154.41a31,31,0,0,1,12.25,3.85,1.11,1.11,0,0,1,.5.81c0,7.75,0,15.5,0,23.47a32.9,32.9,0,0,0-12.77-3.92Z" transform="translate(-85 -154.25)"/><path class="cls-1" d="M105.23,157.42v7l1.61-1.92,1.77,1.88c0-2.63,0-4.95,0-7.26,0-.9.22-1.36,1.13-1.53,1.93-.39,3.86-.85,5.94-1.31,0,.58.09.95.09,1.32,0,7.28,0,14.57,0,21.85,0,1-.3,1.23-1.23,1.32a29.86,29.86,0,0,0-10.22,3.11c-.42.2-.82.42-1.46.75V160.5C102.86,158.25,102.86,158.25,105.23,157.42Z" transform="translate(-85 -154.25)"/><path class="cls-2" d="M85.09,159.8l1.3-.13V181.6a57.19,57.19,0,0,1,6.85.61c2.81.56,5.54,1.52,8.31,2.26a2.73,2.73,0,0,0,1.64.08,34.81,34.81,0,0,1,14.69-2.78,4.65,4.65,0,0,0,.7-.08v-22l1.3.15c0,.41.05.75.05,1.09q0,11.06,0,22.1c0,1.45,0,1.47-1.43,1.32a37.83,37.83,0,0,0-14.82,1.06,4.39,4.39,0,0,1-2.41,0,37.51,37.51,0,0,0-14.94-1c-.86.09-1.33,0-1.33-1,0-7.67,0-15.35,0-23A4.66,4.66,0,0,1,85.09,159.8Z" transform="translate(-85 -154.25)"/><path class="cls-2" d="M88.51,179.11a41.14,41.14,0,0,1,5,1c2.69.89,5.32,2,7.93,3.06a2.1,2.1,0,0,0,2.06,0,30.35,30.35,0,0,1,11.72-3.7c.93-.09,1.22-.4,1.21-1.35,0-6.51,0-13,0-19.52v-1.35h1.34v23.7a59.44,59.44,0,0,0-6.65.65c-2.58.52-5.08,1.43-7.63,2.12a3,3,0,0,1-1.77.1,34.94,34.94,0,0,0-14-2.71,3.16,3.16,0,0,1-.52-.08V157.17h1.31Z" transform="translate(-85 -154.25)"/></svg>